<mxfile host="app.diagrams.net" modified="2024-04-17T04:14:41.322Z" agent="Mozilla/5.0 (Windows NT 10.0; Win64; x64; rv:125.0) Gecko/20100101 Firefox/125.0" etag="TSiPEysEN1jvueDTG5mK" version="24.2.5" type="device">
  <diagram name="Page-1" id="LPJ0158cG2vQj0A3k_Bg">
    <mxGraphModel dx="1272" dy="755" grid="1" gridSize="10" guides="1" tooltips="1" connect="1" arrows="1" fold="1" page="1" pageScale="1" pageWidth="1100" pageHeight="1700" math="0" shadow="0">
      <root>
        <mxCell id="0" />
        <mxCell id="1" parent="0" />
        <mxCell id="H8Z0oulQgXdNzy7xSKqT-23" style="rounded=0;orthogonalLoop=1;jettySize=auto;html=1;exitX=0;exitY=1;exitDx=0;exitDy=0;entryX=1;entryY=0;entryDx=0;entryDy=0;endArrow=none;endFill=0;" parent="1" source="H8Z0oulQgXdNzy7xSKqT-1" target="H8Z0oulQgXdNzy7xSKqT-22" edge="1">
          <mxGeometry relative="1" as="geometry" />
        </mxCell>
        <mxCell id="H8Z0oulQgXdNzy7xSKqT-25" style="rounded=0;orthogonalLoop=1;jettySize=auto;html=1;exitX=1;exitY=1;exitDx=0;exitDy=0;entryX=0;entryY=0;entryDx=0;entryDy=0;endArrow=none;endFill=0;" parent="1" source="H8Z0oulQgXdNzy7xSKqT-1" target="H8Z0oulQgXdNzy7xSKqT-3" edge="1">
          <mxGeometry relative="1" as="geometry" />
        </mxCell>
        <mxCell id="H8Z0oulQgXdNzy7xSKqT-26" style="rounded=0;orthogonalLoop=1;jettySize=auto;html=1;exitX=0.5;exitY=0;exitDx=0;exitDy=0;entryX=0.5;entryY=1;entryDx=0;entryDy=0;endArrow=none;endFill=0;" parent="1" source="H8Z0oulQgXdNzy7xSKqT-1" target="H8Z0oulQgXdNzy7xSKqT-7" edge="1">
          <mxGeometry relative="1" as="geometry" />
        </mxCell>
        <mxCell id="H8Z0oulQgXdNzy7xSKqT-146" style="edgeStyle=orthogonalEdgeStyle;rounded=0;orthogonalLoop=1;jettySize=auto;html=1;exitX=1;exitY=0.5;exitDx=0;exitDy=0;entryX=0;entryY=0.5;entryDx=0;entryDy=0;endArrow=none;endFill=0;shape=link;" parent="1" source="H8Z0oulQgXdNzy7xSKqT-1" edge="1">
          <mxGeometry relative="1" as="geometry">
            <mxPoint x="438.75" y="530" as="targetPoint" />
          </mxGeometry>
        </mxCell>
        <mxCell id="Sa3MG6qZYsyZeLZAQwBk-4" style="edgeStyle=orthogonalEdgeStyle;rounded=0;orthogonalLoop=1;jettySize=auto;html=1;exitX=0.25;exitY=1;exitDx=0;exitDy=0;entryX=0;entryY=0.5;entryDx=0;entryDy=0;shape=link;" parent="1" source="H8Z0oulQgXdNzy7xSKqT-1" target="H8Z0oulQgXdNzy7xSKqT-152" edge="1">
          <mxGeometry relative="1" as="geometry" />
        </mxCell>
        <mxCell id="H8Z0oulQgXdNzy7xSKqT-1" value="Branch" style="whiteSpace=wrap;html=1;align=center;" parent="1" vertex="1">
          <mxGeometry x="138.75" y="510" width="120" height="40" as="geometry" />
        </mxCell>
        <mxCell id="H8Z0oulQgXdNzy7xSKqT-3" value="Email" style="ellipse;whiteSpace=wrap;html=1;align=center;" parent="1" vertex="1">
          <mxGeometry x="298.75" y="560" width="90" height="30" as="geometry" />
        </mxCell>
        <mxCell id="H8Z0oulQgXdNzy7xSKqT-4" value="Tel_No" style="ellipse;whiteSpace=wrap;html=1;align=center;" parent="1" vertex="1">
          <mxGeometry x="188.75" y="575" width="90" height="35" as="geometry" />
        </mxCell>
        <mxCell id="H8Z0oulQgXdNzy7xSKqT-15" style="rounded=0;orthogonalLoop=1;jettySize=auto;html=1;exitX=0;exitY=0.5;exitDx=0;exitDy=0;endArrow=none;endFill=0;" parent="1" source="H8Z0oulQgXdNzy7xSKqT-7" target="H8Z0oulQgXdNzy7xSKqT-13" edge="1">
          <mxGeometry relative="1" as="geometry" />
        </mxCell>
        <mxCell id="H8Z0oulQgXdNzy7xSKqT-21" style="rounded=0;orthogonalLoop=1;jettySize=auto;html=1;exitX=1;exitY=1;exitDx=0;exitDy=0;entryX=0;entryY=1;entryDx=0;entryDy=0;endArrow=none;endFill=0;" parent="1" source="H8Z0oulQgXdNzy7xSKqT-7" target="H8Z0oulQgXdNzy7xSKqT-14" edge="1">
          <mxGeometry relative="1" as="geometry" />
        </mxCell>
        <mxCell id="H8Z0oulQgXdNzy7xSKqT-7" value="Address" style="ellipse;whiteSpace=wrap;html=1;align=center;" parent="1" vertex="1">
          <mxGeometry x="153.75" y="460" width="90" height="30" as="geometry" />
        </mxCell>
        <mxCell id="H8Z0oulQgXdNzy7xSKqT-8" value="Street_No" style="ellipse;whiteSpace=wrap;html=1;align=center;" parent="1" vertex="1">
          <mxGeometry x="53.75" y="370" width="100" height="30" as="geometry" />
        </mxCell>
        <mxCell id="H8Z0oulQgXdNzy7xSKqT-10" value="Street_Name" style="ellipse;whiteSpace=wrap;html=1;align=center;" parent="1" vertex="1">
          <mxGeometry x="153.75" y="340" width="90" height="30" as="geometry" />
        </mxCell>
        <mxCell id="H8Z0oulQgXdNzy7xSKqT-11" value="Suburb" style="ellipse;whiteSpace=wrap;html=1;align=center;" parent="1" vertex="1">
          <mxGeometry x="253.75" y="350" width="90" height="30" as="geometry" />
        </mxCell>
        <mxCell id="H8Z0oulQgXdNzy7xSKqT-12" value="State" style="ellipse;whiteSpace=wrap;html=1;align=center;" parent="1" vertex="1">
          <mxGeometry x="313.75" y="390" width="90" height="30" as="geometry" />
        </mxCell>
        <mxCell id="H8Z0oulQgXdNzy7xSKqT-13" value="Unit_No" style="ellipse;whiteSpace=wrap;html=1;align=center;" parent="1" vertex="1">
          <mxGeometry x="33.75" y="420" width="90" height="30" as="geometry" />
        </mxCell>
        <mxCell id="H8Z0oulQgXdNzy7xSKqT-14" value="Post_Code" style="ellipse;whiteSpace=wrap;html=1;align=center;" parent="1" vertex="1">
          <mxGeometry x="333.75" y="430" width="90" height="30" as="geometry" />
        </mxCell>
        <mxCell id="H8Z0oulQgXdNzy7xSKqT-16" style="rounded=0;orthogonalLoop=1;jettySize=auto;html=1;exitX=0;exitY=0;exitDx=0;exitDy=0;entryX=0.96;entryY=0.8;entryDx=0;entryDy=0;entryPerimeter=0;endArrow=none;endFill=0;" parent="1" source="H8Z0oulQgXdNzy7xSKqT-7" target="H8Z0oulQgXdNzy7xSKqT-8" edge="1">
          <mxGeometry relative="1" as="geometry" />
        </mxCell>
        <mxCell id="H8Z0oulQgXdNzy7xSKqT-17" style="rounded=0;orthogonalLoop=1;jettySize=auto;html=1;exitX=0.5;exitY=0;exitDx=0;exitDy=0;entryX=0.611;entryY=1.067;entryDx=0;entryDy=0;entryPerimeter=0;endArrow=none;endFill=0;" parent="1" source="H8Z0oulQgXdNzy7xSKqT-7" target="H8Z0oulQgXdNzy7xSKqT-10" edge="1">
          <mxGeometry relative="1" as="geometry" />
        </mxCell>
        <mxCell id="H8Z0oulQgXdNzy7xSKqT-18" style="rounded=0;orthogonalLoop=1;jettySize=auto;html=1;exitX=1;exitY=0;exitDx=0;exitDy=0;entryX=0.222;entryY=1;entryDx=0;entryDy=0;entryPerimeter=0;endArrow=none;endFill=0;" parent="1" source="H8Z0oulQgXdNzy7xSKqT-7" target="H8Z0oulQgXdNzy7xSKqT-11" edge="1">
          <mxGeometry relative="1" as="geometry" />
        </mxCell>
        <mxCell id="H8Z0oulQgXdNzy7xSKqT-19" style="rounded=0;orthogonalLoop=1;jettySize=auto;html=1;exitX=1;exitY=0.5;exitDx=0;exitDy=0;entryX=0.022;entryY=0.767;entryDx=0;entryDy=0;entryPerimeter=0;endArrow=none;endFill=0;" parent="1" source="H8Z0oulQgXdNzy7xSKqT-7" target="H8Z0oulQgXdNzy7xSKqT-12" edge="1">
          <mxGeometry relative="1" as="geometry" />
        </mxCell>
        <mxCell id="H8Z0oulQgXdNzy7xSKqT-22" value="Branch No" style="ellipse;whiteSpace=wrap;html=1;align=center;fontStyle=4;" parent="1" vertex="1">
          <mxGeometry x="28.75" y="565" width="90" height="40" as="geometry" />
        </mxCell>
        <mxCell id="H8Z0oulQgXdNzy7xSKqT-24" style="rounded=0;orthogonalLoop=1;jettySize=auto;html=1;exitX=0.5;exitY=1;exitDx=0;exitDy=0;entryX=0.344;entryY=0.057;entryDx=0;entryDy=0;entryPerimeter=0;endArrow=none;endFill=0;" parent="1" source="H8Z0oulQgXdNzy7xSKqT-1" target="H8Z0oulQgXdNzy7xSKqT-4" edge="1">
          <mxGeometry relative="1" as="geometry" />
        </mxCell>
        <mxCell id="H8Z0oulQgXdNzy7xSKqT-57" style="rounded=0;orthogonalLoop=1;jettySize=auto;html=1;exitX=0;exitY=0.75;exitDx=0;exitDy=0;entryX=1;entryY=0.5;entryDx=0;entryDy=0;endArrow=none;endFill=0;" parent="1" source="H8Z0oulQgXdNzy7xSKqT-30" target="H8Z0oulQgXdNzy7xSKqT-46" edge="1">
          <mxGeometry relative="1" as="geometry" />
        </mxCell>
        <mxCell id="H8Z0oulQgXdNzy7xSKqT-58" style="rounded=0;orthogonalLoop=1;jettySize=auto;html=1;exitX=0;exitY=1;exitDx=0;exitDy=0;entryX=1;entryY=0;entryDx=0;entryDy=0;endArrow=none;endFill=0;" parent="1" source="H8Z0oulQgXdNzy7xSKqT-30" target="H8Z0oulQgXdNzy7xSKqT-56" edge="1">
          <mxGeometry relative="1" as="geometry" />
        </mxCell>
        <mxCell id="H8Z0oulQgXdNzy7xSKqT-60" style="rounded=0;orthogonalLoop=1;jettySize=auto;html=1;exitX=0.75;exitY=1;exitDx=0;exitDy=0;entryX=0;entryY=0.5;entryDx=0;entryDy=0;endArrow=none;endFill=0;" parent="1" source="H8Z0oulQgXdNzy7xSKqT-30" target="H8Z0oulQgXdNzy7xSKqT-31" edge="1">
          <mxGeometry relative="1" as="geometry" />
        </mxCell>
        <mxCell id="H8Z0oulQgXdNzy7xSKqT-61" style="rounded=0;orthogonalLoop=1;jettySize=auto;html=1;exitX=1;exitY=0.75;exitDx=0;exitDy=0;endArrow=none;endFill=0;" parent="1" source="H8Z0oulQgXdNzy7xSKqT-30" edge="1">
          <mxGeometry relative="1" as="geometry">
            <mxPoint x="939" y="565" as="targetPoint" />
          </mxGeometry>
        </mxCell>
        <mxCell id="H8Z0oulQgXdNzy7xSKqT-62" style="edgeStyle=orthogonalEdgeStyle;rounded=0;orthogonalLoop=1;jettySize=auto;html=1;exitX=0.5;exitY=0;exitDx=0;exitDy=0;endArrow=none;endFill=0;" parent="1" source="H8Z0oulQgXdNzy7xSKqT-30" edge="1">
          <mxGeometry relative="1" as="geometry">
            <mxPoint x="699" y="425" as="targetPoint" />
          </mxGeometry>
        </mxCell>
        <mxCell id="H8Z0oulQgXdNzy7xSKqT-177" style="rounded=0;orthogonalLoop=1;jettySize=auto;html=1;exitX=0.5;exitY=1;exitDx=0;exitDy=0;entryX=0.5;entryY=0;entryDx=0;entryDy=0;endArrow=none;endFill=0;" parent="1" source="H8Z0oulQgXdNzy7xSKqT-30" target="H8Z0oulQgXdNzy7xSKqT-32" edge="1">
          <mxGeometry relative="1" as="geometry" />
        </mxCell>
        <mxCell id="H8Z0oulQgXdNzy7xSKqT-215" style="edgeStyle=orthogonalEdgeStyle;rounded=0;orthogonalLoop=1;jettySize=auto;html=1;exitX=1;exitY=0.25;exitDx=0;exitDy=0;entryX=0;entryY=0.5;entryDx=0;entryDy=0;endArrow=none;endFill=0;" parent="1" source="H8Z0oulQgXdNzy7xSKqT-30" target="H8Z0oulQgXdNzy7xSKqT-214" edge="1">
          <mxGeometry relative="1" as="geometry" />
        </mxCell>
        <mxCell id="Sa3MG6qZYsyZeLZAQwBk-5" style="edgeStyle=orthogonalEdgeStyle;rounded=0;orthogonalLoop=1;jettySize=auto;html=1;exitX=0.25;exitY=1;exitDx=0;exitDy=0;entryX=1;entryY=0.5;entryDx=0;entryDy=0;endArrow=none;endFill=0;" parent="1" source="H8Z0oulQgXdNzy7xSKqT-30" target="H8Z0oulQgXdNzy7xSKqT-152" edge="1">
          <mxGeometry relative="1" as="geometry" />
        </mxCell>
        <mxCell id="Sa3MG6qZYsyZeLZAQwBk-13" style="edgeStyle=orthogonalEdgeStyle;rounded=0;orthogonalLoop=1;jettySize=auto;html=1;exitX=0.75;exitY=0;exitDx=0;exitDy=0;entryX=0;entryY=0.5;entryDx=0;entryDy=0;endArrow=none;endFill=0;" parent="1" source="H8Z0oulQgXdNzy7xSKqT-30" target="H8Z0oulQgXdNzy7xSKqT-258" edge="1">
          <mxGeometry relative="1" as="geometry" />
        </mxCell>
        <mxCell id="H8Z0oulQgXdNzy7xSKqT-30" value="Employee" style="whiteSpace=wrap;html=1;align=center;" parent="1" vertex="1">
          <mxGeometry x="733.75" y="520" width="120" height="40" as="geometry" />
        </mxCell>
        <mxCell id="H8Z0oulQgXdNzy7xSKqT-31" value="Annual_Salary" style="ellipse;whiteSpace=wrap;html=1;align=center;" parent="1" vertex="1">
          <mxGeometry x="908.75" y="590" width="90" height="30" as="geometry" />
        </mxCell>
        <mxCell id="H8Z0oulQgXdNzy7xSKqT-32" value="Tel_No" style="ellipse;whiteSpace=wrap;html=1;align=center;" parent="1" vertex="1">
          <mxGeometry x="778.75" y="600" width="90" height="35" as="geometry" />
        </mxCell>
        <mxCell id="H8Z0oulQgXdNzy7xSKqT-33" style="rounded=0;orthogonalLoop=1;jettySize=auto;html=1;exitX=0;exitY=0.5;exitDx=0;exitDy=0;endArrow=none;endFill=0;" parent="1" source="H8Z0oulQgXdNzy7xSKqT-35" target="H8Z0oulQgXdNzy7xSKqT-40" edge="1">
          <mxGeometry relative="1" as="geometry" />
        </mxCell>
        <mxCell id="H8Z0oulQgXdNzy7xSKqT-34" style="rounded=0;orthogonalLoop=1;jettySize=auto;html=1;exitX=1;exitY=1;exitDx=0;exitDy=0;entryX=0;entryY=1;entryDx=0;entryDy=0;endArrow=none;endFill=0;" parent="1" source="H8Z0oulQgXdNzy7xSKqT-35" target="H8Z0oulQgXdNzy7xSKqT-41" edge="1">
          <mxGeometry relative="1" as="geometry" />
        </mxCell>
        <mxCell id="H8Z0oulQgXdNzy7xSKqT-35" value="Address" style="ellipse;whiteSpace=wrap;html=1;align=center;" parent="1" vertex="1">
          <mxGeometry x="653.75" y="395" width="90" height="30" as="geometry" />
        </mxCell>
        <mxCell id="H8Z0oulQgXdNzy7xSKqT-36" value="Street_No" style="ellipse;whiteSpace=wrap;html=1;align=center;" parent="1" vertex="1">
          <mxGeometry x="538.75" y="305" width="100" height="30" as="geometry" />
        </mxCell>
        <mxCell id="H8Z0oulQgXdNzy7xSKqT-37" value="Street_Name" style="ellipse;whiteSpace=wrap;html=1;align=center;" parent="1" vertex="1">
          <mxGeometry x="638.75" y="275" width="90" height="30" as="geometry" />
        </mxCell>
        <mxCell id="H8Z0oulQgXdNzy7xSKqT-38" value="Suburb" style="ellipse;whiteSpace=wrap;html=1;align=center;" parent="1" vertex="1">
          <mxGeometry x="738.75" y="285" width="90" height="30" as="geometry" />
        </mxCell>
        <mxCell id="H8Z0oulQgXdNzy7xSKqT-39" value="State" style="ellipse;whiteSpace=wrap;html=1;align=center;" parent="1" vertex="1">
          <mxGeometry x="798.75" y="325" width="90" height="30" as="geometry" />
        </mxCell>
        <mxCell id="H8Z0oulQgXdNzy7xSKqT-40" value="Unit_No" style="ellipse;whiteSpace=wrap;html=1;align=center;" parent="1" vertex="1">
          <mxGeometry x="518.75" y="355" width="90" height="30" as="geometry" />
        </mxCell>
        <mxCell id="H8Z0oulQgXdNzy7xSKqT-41" value="Post_Code" style="ellipse;whiteSpace=wrap;html=1;align=center;" parent="1" vertex="1">
          <mxGeometry x="818.75" y="365" width="90" height="30" as="geometry" />
        </mxCell>
        <mxCell id="H8Z0oulQgXdNzy7xSKqT-42" style="rounded=0;orthogonalLoop=1;jettySize=auto;html=1;exitX=0;exitY=0;exitDx=0;exitDy=0;entryX=0.96;entryY=0.8;entryDx=0;entryDy=0;entryPerimeter=0;endArrow=none;endFill=0;" parent="1" source="H8Z0oulQgXdNzy7xSKqT-35" target="H8Z0oulQgXdNzy7xSKqT-36" edge="1">
          <mxGeometry relative="1" as="geometry" />
        </mxCell>
        <mxCell id="H8Z0oulQgXdNzy7xSKqT-43" style="rounded=0;orthogonalLoop=1;jettySize=auto;html=1;exitX=0.5;exitY=0;exitDx=0;exitDy=0;entryX=0.611;entryY=1.067;entryDx=0;entryDy=0;entryPerimeter=0;endArrow=none;endFill=0;" parent="1" source="H8Z0oulQgXdNzy7xSKqT-35" target="H8Z0oulQgXdNzy7xSKqT-37" edge="1">
          <mxGeometry relative="1" as="geometry" />
        </mxCell>
        <mxCell id="H8Z0oulQgXdNzy7xSKqT-44" style="rounded=0;orthogonalLoop=1;jettySize=auto;html=1;exitX=1;exitY=0;exitDx=0;exitDy=0;entryX=0.222;entryY=1;entryDx=0;entryDy=0;entryPerimeter=0;endArrow=none;endFill=0;" parent="1" source="H8Z0oulQgXdNzy7xSKqT-35" target="H8Z0oulQgXdNzy7xSKqT-38" edge="1">
          <mxGeometry relative="1" as="geometry" />
        </mxCell>
        <mxCell id="H8Z0oulQgXdNzy7xSKqT-45" style="rounded=0;orthogonalLoop=1;jettySize=auto;html=1;exitX=1;exitY=0.5;exitDx=0;exitDy=0;entryX=0.022;entryY=0.767;entryDx=0;entryDy=0;entryPerimeter=0;endArrow=none;endFill=0;" parent="1" source="H8Z0oulQgXdNzy7xSKqT-35" target="H8Z0oulQgXdNzy7xSKqT-39" edge="1">
          <mxGeometry relative="1" as="geometry" />
        </mxCell>
        <mxCell id="H8Z0oulQgXdNzy7xSKqT-46" value="Emp No" style="ellipse;whiteSpace=wrap;html=1;align=center;fontStyle=4;" parent="1" vertex="1">
          <mxGeometry x="608.75" y="560" width="90" height="30" as="geometry" />
        </mxCell>
        <mxCell id="H8Z0oulQgXdNzy7xSKqT-54" value="Join_Date" style="ellipse;whiteSpace=wrap;html=1;align=center;" parent="1" vertex="1">
          <mxGeometry x="938.75" y="550" width="90" height="30" as="geometry" />
        </mxCell>
        <mxCell id="H8Z0oulQgXdNzy7xSKqT-56" value="Name" style="ellipse;whiteSpace=wrap;html=1;align=center;" parent="1" vertex="1">
          <mxGeometry x="643.75" y="600" width="90" height="30" as="geometry" />
        </mxCell>
        <mxCell id="H8Z0oulQgXdNzy7xSKqT-88" style="rounded=0;orthogonalLoop=1;jettySize=auto;html=1;exitX=0;exitY=0.75;exitDx=0;exitDy=0;entryX=1;entryY=0.5;entryDx=0;entryDy=0;endArrow=none;endFill=0;" parent="1" source="H8Z0oulQgXdNzy7xSKqT-93" target="H8Z0oulQgXdNzy7xSKqT-96" edge="1">
          <mxGeometry relative="1" as="geometry" />
        </mxCell>
        <mxCell id="H8Z0oulQgXdNzy7xSKqT-130" style="rounded=0;orthogonalLoop=1;jettySize=auto;html=1;exitX=0;exitY=1;exitDx=0;exitDy=0;entryX=0.5;entryY=0;entryDx=0;entryDy=0;endArrow=none;endFill=0;" parent="1" source="H8Z0oulQgXdNzy7xSKqT-93" target="H8Z0oulQgXdNzy7xSKqT-98" edge="1">
          <mxGeometry relative="1" as="geometry" />
        </mxCell>
        <mxCell id="H8Z0oulQgXdNzy7xSKqT-131" style="rounded=0;orthogonalLoop=1;jettySize=auto;html=1;exitX=0.5;exitY=1;exitDx=0;exitDy=0;endArrow=none;endFill=0;" parent="1" source="H8Z0oulQgXdNzy7xSKqT-93" target="H8Z0oulQgXdNzy7xSKqT-95" edge="1">
          <mxGeometry relative="1" as="geometry" />
        </mxCell>
        <mxCell id="H8Z0oulQgXdNzy7xSKqT-132" value="" style="rounded=0;orthogonalLoop=1;jettySize=auto;html=1;endArrow=none;endFill=0;" parent="1" source="H8Z0oulQgXdNzy7xSKqT-93" target="H8Z0oulQgXdNzy7xSKqT-94" edge="1">
          <mxGeometry relative="1" as="geometry" />
        </mxCell>
        <mxCell id="H8Z0oulQgXdNzy7xSKqT-93" value="Owner" style="whiteSpace=wrap;html=1;align=center;" parent="1" vertex="1">
          <mxGeometry x="723.75" y="912.5" width="120" height="40" as="geometry" />
        </mxCell>
        <mxCell id="H8Z0oulQgXdNzy7xSKqT-94" value="Bank_Act_No" style="ellipse;whiteSpace=wrap;html=1;align=center;" parent="1" vertex="1">
          <mxGeometry x="863.75" y="952.5" width="100" height="30" as="geometry" />
        </mxCell>
        <mxCell id="H8Z0oulQgXdNzy7xSKqT-95" value="Tel_No" style="ellipse;whiteSpace=wrap;html=1;align=center;" parent="1" vertex="1">
          <mxGeometry x="783.75" y="990" width="95" height="37.5" as="geometry" />
        </mxCell>
        <mxCell id="H8Z0oulQgXdNzy7xSKqT-96" value="Owner No" style="ellipse;whiteSpace=wrap;html=1;align=center;fontStyle=4;" parent="1" vertex="1">
          <mxGeometry x="593.75" y="952.5" width="90" height="30" as="geometry" />
        </mxCell>
        <mxCell id="P_JCBOuYoXRhGGfqbiAj-3" style="edgeStyle=orthogonalEdgeStyle;rounded=0;orthogonalLoop=1;jettySize=auto;html=1;exitX=0.5;exitY=0;exitDx=0;exitDy=0;endArrow=none;endFill=0;" edge="1" parent="1" source="H8Z0oulQgXdNzy7xSKqT-98">
          <mxGeometry relative="1" as="geometry">
            <mxPoint x="718.6666666666667" y="990" as="targetPoint" />
          </mxGeometry>
        </mxCell>
        <mxCell id="H8Z0oulQgXdNzy7xSKqT-98" value="Name" style="ellipse;whiteSpace=wrap;html=1;align=center;" parent="1" vertex="1">
          <mxGeometry x="673.75" y="993.75" width="90" height="30" as="geometry" />
        </mxCell>
        <mxCell id="H8Z0oulQgXdNzy7xSKqT-99" style="rounded=0;orthogonalLoop=1;jettySize=auto;html=1;exitX=0;exitY=0.75;exitDx=0;exitDy=0;entryX=1;entryY=0.5;entryDx=0;entryDy=0;endArrow=none;endFill=0;" parent="1" source="H8Z0oulQgXdNzy7xSKqT-104" target="H8Z0oulQgXdNzy7xSKqT-107" edge="1">
          <mxGeometry relative="1" as="geometry" />
        </mxCell>
        <mxCell id="H8Z0oulQgXdNzy7xSKqT-100" style="rounded=0;orthogonalLoop=1;jettySize=auto;html=1;exitX=0;exitY=1;exitDx=0;exitDy=0;entryX=1;entryY=0;entryDx=0;entryDy=0;endArrow=none;endFill=0;" parent="1" source="H8Z0oulQgXdNzy7xSKqT-104" target="H8Z0oulQgXdNzy7xSKqT-109" edge="1">
          <mxGeometry relative="1" as="geometry" />
        </mxCell>
        <mxCell id="H8Z0oulQgXdNzy7xSKqT-101" style="rounded=0;orthogonalLoop=1;jettySize=auto;html=1;exitX=0.25;exitY=1;exitDx=0;exitDy=0;endArrow=none;endFill=0;" parent="1" source="H8Z0oulQgXdNzy7xSKqT-104" target="H8Z0oulQgXdNzy7xSKqT-106" edge="1">
          <mxGeometry relative="1" as="geometry" />
        </mxCell>
        <mxCell id="H8Z0oulQgXdNzy7xSKqT-102" style="rounded=0;orthogonalLoop=1;jettySize=auto;html=1;exitX=0.75;exitY=1;exitDx=0;exitDy=0;entryX=0;entryY=0.5;entryDx=0;entryDy=0;endArrow=none;endFill=0;" parent="1" source="H8Z0oulQgXdNzy7xSKqT-104" target="H8Z0oulQgXdNzy7xSKqT-105" edge="1">
          <mxGeometry relative="1" as="geometry" />
        </mxCell>
        <mxCell id="H8Z0oulQgXdNzy7xSKqT-103" style="rounded=0;orthogonalLoop=1;jettySize=auto;html=1;exitX=1;exitY=0.75;exitDx=0;exitDy=0;entryX=0;entryY=0.5;entryDx=0;entryDy=0;endArrow=none;endFill=0;" parent="1" source="H8Z0oulQgXdNzy7xSKqT-104" target="H8Z0oulQgXdNzy7xSKqT-108" edge="1">
          <mxGeometry relative="1" as="geometry" />
        </mxCell>
        <mxCell id="H8Z0oulQgXdNzy7xSKqT-248" style="edgeStyle=orthogonalEdgeStyle;rounded=0;orthogonalLoop=1;jettySize=auto;html=1;exitX=0.5;exitY=0;exitDx=0;exitDy=0;entryX=0.5;entryY=1;entryDx=0;entryDy=0;endArrow=none;endFill=0;" parent="1" source="H8Z0oulQgXdNzy7xSKqT-104" target="H8Z0oulQgXdNzy7xSKqT-245" edge="1">
          <mxGeometry relative="1" as="geometry" />
        </mxCell>
        <mxCell id="H8Z0oulQgXdNzy7xSKqT-104" value="Renter" style="whiteSpace=wrap;html=1;align=center;" parent="1" vertex="1">
          <mxGeometry x="1395.63" y="912.5" width="120" height="40" as="geometry" />
        </mxCell>
        <mxCell id="H8Z0oulQgXdNzy7xSKqT-105" value="Max_Weekly_Rent" style="ellipse;whiteSpace=wrap;html=1;align=center;" parent="1" vertex="1">
          <mxGeometry x="1538.75" y="997.5" width="110" height="40" as="geometry" />
        </mxCell>
        <mxCell id="H8Z0oulQgXdNzy7xSKqT-106" value="Pref_Accomo_Type" style="ellipse;whiteSpace=wrap;html=1;align=center;" parent="1" vertex="1">
          <mxGeometry x="1395.63" y="1002.5" width="115" height="57.5" as="geometry" />
        </mxCell>
        <mxCell id="H8Z0oulQgXdNzy7xSKqT-107" value="Renter No" style="ellipse;whiteSpace=wrap;html=1;align=center;fontStyle=4;" parent="1" vertex="1">
          <mxGeometry x="1258.75" y="940" width="90" height="30" as="geometry" />
        </mxCell>
        <mxCell id="H8Z0oulQgXdNzy7xSKqT-108" value="Tel_No" style="ellipse;whiteSpace=wrap;html=1;align=center;" parent="1" vertex="1">
          <mxGeometry x="1562.5" y="940" width="90" height="30" as="geometry" />
        </mxCell>
        <mxCell id="H8Z0oulQgXdNzy7xSKqT-109" value="Name" style="ellipse;whiteSpace=wrap;html=1;align=center;" parent="1" vertex="1">
          <mxGeometry x="1288.75" y="1002.5" width="90" height="30" as="geometry" />
        </mxCell>
        <mxCell id="H8Z0oulQgXdNzy7xSKqT-240" style="edgeStyle=orthogonalEdgeStyle;rounded=0;orthogonalLoop=1;jettySize=auto;html=1;exitX=1;exitY=0.5;exitDx=0;exitDy=0;entryX=0.5;entryY=0;entryDx=0;entryDy=0;endArrow=none;endFill=0;shape=link;" parent="1" source="H8Z0oulQgXdNzy7xSKqT-115" target="H8Z0oulQgXdNzy7xSKqT-224" edge="1">
          <mxGeometry relative="1" as="geometry" />
        </mxCell>
        <mxCell id="H8Z0oulQgXdNzy7xSKqT-267" style="rounded=0;orthogonalLoop=1;jettySize=auto;html=1;exitX=0;exitY=0;exitDx=0;exitDy=0;entryX=1;entryY=1;entryDx=0;entryDy=0;endArrow=none;endFill=0;" parent="1" source="H8Z0oulQgXdNzy7xSKqT-115" target="H8Z0oulQgXdNzy7xSKqT-121" edge="1">
          <mxGeometry relative="1" as="geometry" />
        </mxCell>
        <mxCell id="H8Z0oulQgXdNzy7xSKqT-115" value="Features" style="whiteSpace=wrap;html=1;align=center;" parent="1" vertex="1">
          <mxGeometry x="1415" y="170" width="120" height="40" as="geometry" />
        </mxCell>
        <mxCell id="H8Z0oulQgXdNzy7xSKqT-119" value="Feature_Name" style="ellipse;whiteSpace=wrap;html=1;align=center;" parent="1" vertex="1">
          <mxGeometry x="1448.75" y="100" width="100" height="30" as="geometry" />
        </mxCell>
        <mxCell id="H8Z0oulQgXdNzy7xSKqT-121" value="Feature Id" style="ellipse;whiteSpace=wrap;html=1;align=center;fontStyle=4;" parent="1" vertex="1">
          <mxGeometry x="1303.75" y="120" width="90" height="30" as="geometry" />
        </mxCell>
        <mxCell id="H8Z0oulQgXdNzy7xSKqT-147" style="edgeStyle=orthogonalEdgeStyle;rounded=0;orthogonalLoop=1;jettySize=auto;html=1;exitX=1;exitY=0.5;exitDx=0;exitDy=0;entryX=0;entryY=0.25;entryDx=0;entryDy=0;endArrow=none;endFill=0;shape=link;" parent="1" target="H8Z0oulQgXdNzy7xSKqT-30" edge="1">
          <mxGeometry relative="1" as="geometry">
            <mxPoint x="518.75" y="530" as="sourcePoint" />
          </mxGeometry>
        </mxCell>
        <mxCell id="H8Z0oulQgXdNzy7xSKqT-145" value="Works_For" style="shape=rhombus;perimeter=rhombusPerimeter;whiteSpace=wrap;html=1;align=center;" parent="1" vertex="1">
          <mxGeometry x="438.75" y="500" width="120" height="60" as="geometry" />
        </mxCell>
        <mxCell id="H8Z0oulQgXdNzy7xSKqT-148" value="&lt;font style=&quot;font-size: 20px;&quot;&gt;1&lt;/font&gt;" style="text;html=1;align=center;verticalAlign=middle;whiteSpace=wrap;rounded=0;" parent="1" vertex="1">
          <mxGeometry x="348.75" y="490" width="90" height="50" as="geometry" />
        </mxCell>
        <mxCell id="H8Z0oulQgXdNzy7xSKqT-152" value="Manages" style="shape=rhombus;perimeter=rhombusPerimeter;whiteSpace=wrap;html=1;align=center;" parent="1" vertex="1">
          <mxGeometry x="470" y="620" width="120" height="70" as="geometry" />
        </mxCell>
        <mxCell id="H8Z0oulQgXdNzy7xSKqT-186" style="rounded=0;orthogonalLoop=1;jettySize=auto;html=1;exitX=0;exitY=0.75;exitDx=0;exitDy=0;entryX=1;entryY=0.5;entryDx=0;entryDy=0;endArrow=none;endFill=0;" parent="1" source="H8Z0oulQgXdNzy7xSKqT-192" target="H8Z0oulQgXdNzy7xSKqT-208" edge="1">
          <mxGeometry relative="1" as="geometry" />
        </mxCell>
        <mxCell id="H8Z0oulQgXdNzy7xSKqT-187" style="rounded=0;orthogonalLoop=1;jettySize=auto;html=1;exitX=0;exitY=1;exitDx=0;exitDy=0;entryX=1;entryY=0;entryDx=0;entryDy=0;endArrow=none;endFill=0;" parent="1" source="H8Z0oulQgXdNzy7xSKqT-192" target="H8Z0oulQgXdNzy7xSKqT-210" edge="1">
          <mxGeometry relative="1" as="geometry" />
        </mxCell>
        <mxCell id="H8Z0oulQgXdNzy7xSKqT-188" style="rounded=0;orthogonalLoop=1;jettySize=auto;html=1;exitX=0.25;exitY=1;exitDx=0;exitDy=0;endArrow=none;endFill=0;" parent="1" source="H8Z0oulQgXdNzy7xSKqT-192" target="H8Z0oulQgXdNzy7xSKqT-194" edge="1">
          <mxGeometry relative="1" as="geometry" />
        </mxCell>
        <mxCell id="H8Z0oulQgXdNzy7xSKqT-189" style="rounded=0;orthogonalLoop=1;jettySize=auto;html=1;exitX=0.75;exitY=1;exitDx=0;exitDy=0;entryX=0;entryY=0.5;entryDx=0;entryDy=0;endArrow=none;endFill=0;" parent="1" source="H8Z0oulQgXdNzy7xSKqT-192" target="H8Z0oulQgXdNzy7xSKqT-193" edge="1">
          <mxGeometry relative="1" as="geometry" />
        </mxCell>
        <mxCell id="H8Z0oulQgXdNzy7xSKqT-191" style="edgeStyle=orthogonalEdgeStyle;rounded=0;orthogonalLoop=1;jettySize=auto;html=1;exitX=0.5;exitY=0;exitDx=0;exitDy=0;entryX=0.5;entryY=1;entryDx=0;entryDy=0;endArrow=none;endFill=0;" parent="1" source="H8Z0oulQgXdNzy7xSKqT-192" target="H8Z0oulQgXdNzy7xSKqT-197" edge="1">
          <mxGeometry relative="1" as="geometry" />
        </mxCell>
        <mxCell id="H8Z0oulQgXdNzy7xSKqT-236" style="edgeStyle=orthogonalEdgeStyle;rounded=0;orthogonalLoop=1;jettySize=auto;html=1;exitX=0;exitY=0.5;exitDx=0;exitDy=0;entryX=1;entryY=0.5;entryDx=0;entryDy=0;endArrow=none;endFill=0;shape=link;" parent="1" edge="1">
          <mxGeometry relative="1" as="geometry">
            <mxPoint x="1458.75" y="540" as="sourcePoint" />
            <mxPoint x="1078.75" y="750" as="targetPoint" />
            <Array as="points">
              <mxPoint x="1250" y="541" />
              <mxPoint x="1250" y="750" />
            </Array>
          </mxGeometry>
        </mxCell>
        <mxCell id="H8Z0oulQgXdNzy7xSKqT-246" style="edgeStyle=orthogonalEdgeStyle;rounded=0;orthogonalLoop=1;jettySize=auto;html=1;exitX=0.25;exitY=1;exitDx=0;exitDy=0;entryX=0.5;entryY=0;entryDx=0;entryDy=0;endArrow=none;endFill=0;" parent="1" source="H8Z0oulQgXdNzy7xSKqT-192" target="H8Z0oulQgXdNzy7xSKqT-245" edge="1">
          <mxGeometry relative="1" as="geometry">
            <Array as="points">
              <mxPoint x="1456" y="560" />
            </Array>
          </mxGeometry>
        </mxCell>
        <mxCell id="H8Z0oulQgXdNzy7xSKqT-192" value="Property" style="whiteSpace=wrap;html=1;align=center;" parent="1" vertex="1">
          <mxGeometry x="1438.75" y="520" width="120" height="40" as="geometry" />
        </mxCell>
        <mxCell id="H8Z0oulQgXdNzy7xSKqT-193" value="Weekly_Rent" style="ellipse;whiteSpace=wrap;html=1;align=center;" parent="1" vertex="1">
          <mxGeometry x="1568.75" y="570" width="100" height="30" as="geometry" />
        </mxCell>
        <mxCell id="H8Z0oulQgXdNzy7xSKqT-194" value="No_of_Rooms" style="ellipse;whiteSpace=wrap;html=1;align=center;" parent="1" vertex="1">
          <mxGeometry x="1526.25" y="610" width="95" height="37.5" as="geometry" />
        </mxCell>
        <mxCell id="H8Z0oulQgXdNzy7xSKqT-195" style="rounded=0;orthogonalLoop=1;jettySize=auto;html=1;exitX=0;exitY=0.5;exitDx=0;exitDy=0;endArrow=none;endFill=0;" parent="1" source="H8Z0oulQgXdNzy7xSKqT-197" edge="1">
          <mxGeometry relative="1" as="geometry">
            <mxPoint x="1381" y="452" as="targetPoint" />
          </mxGeometry>
        </mxCell>
        <mxCell id="H8Z0oulQgXdNzy7xSKqT-196" style="rounded=0;orthogonalLoop=1;jettySize=auto;html=1;exitX=1;exitY=1;exitDx=0;exitDy=0;entryX=0;entryY=1;entryDx=0;entryDy=0;endArrow=none;endFill=0;" parent="1" source="H8Z0oulQgXdNzy7xSKqT-197" target="H8Z0oulQgXdNzy7xSKqT-203" edge="1">
          <mxGeometry relative="1" as="geometry" />
        </mxCell>
        <mxCell id="H8Z0oulQgXdNzy7xSKqT-197" value="Address" style="ellipse;whiteSpace=wrap;html=1;align=center;" parent="1" vertex="1">
          <mxGeometry x="1443.75" y="465" width="90" height="30" as="geometry" />
        </mxCell>
        <mxCell id="H8Z0oulQgXdNzy7xSKqT-198" value="Street_No" style="ellipse;whiteSpace=wrap;html=1;align=center;" parent="1" vertex="1">
          <mxGeometry x="1328.75" y="375" width="100" height="30" as="geometry" />
        </mxCell>
        <mxCell id="H8Z0oulQgXdNzy7xSKqT-199" value="Street_Name" style="ellipse;whiteSpace=wrap;html=1;align=center;" parent="1" vertex="1">
          <mxGeometry x="1428.75" y="345" width="90" height="30" as="geometry" />
        </mxCell>
        <mxCell id="H8Z0oulQgXdNzy7xSKqT-200" value="Suburb" style="ellipse;whiteSpace=wrap;html=1;align=center;" parent="1" vertex="1">
          <mxGeometry x="1528.75" y="355" width="90" height="30" as="geometry" />
        </mxCell>
        <mxCell id="H8Z0oulQgXdNzy7xSKqT-201" value="State" style="ellipse;whiteSpace=wrap;html=1;align=center;" parent="1" vertex="1">
          <mxGeometry x="1588.75" y="395" width="90" height="30" as="geometry" />
        </mxCell>
        <mxCell id="H8Z0oulQgXdNzy7xSKqT-202" value="Unit_No" style="ellipse;whiteSpace=wrap;html=1;align=center;" parent="1" vertex="1">
          <mxGeometry x="1308.75" y="425" width="90" height="30" as="geometry" />
        </mxCell>
        <mxCell id="H8Z0oulQgXdNzy7xSKqT-203" value="Post_Code" style="ellipse;whiteSpace=wrap;html=1;align=center;" parent="1" vertex="1">
          <mxGeometry x="1608.75" y="435" width="90" height="30" as="geometry" />
        </mxCell>
        <mxCell id="H8Z0oulQgXdNzy7xSKqT-204" style="rounded=0;orthogonalLoop=1;jettySize=auto;html=1;exitX=0;exitY=0;exitDx=0;exitDy=0;entryX=0.96;entryY=0.8;entryDx=0;entryDy=0;entryPerimeter=0;endArrow=none;endFill=0;" parent="1" source="H8Z0oulQgXdNzy7xSKqT-197" target="H8Z0oulQgXdNzy7xSKqT-198" edge="1">
          <mxGeometry relative="1" as="geometry" />
        </mxCell>
        <mxCell id="H8Z0oulQgXdNzy7xSKqT-205" style="rounded=0;orthogonalLoop=1;jettySize=auto;html=1;exitX=0.5;exitY=0;exitDx=0;exitDy=0;endArrow=none;endFill=0;" parent="1" source="H8Z0oulQgXdNzy7xSKqT-197" edge="1">
          <mxGeometry relative="1" as="geometry">
            <mxPoint x="1484" y="377" as="targetPoint" />
          </mxGeometry>
        </mxCell>
        <mxCell id="H8Z0oulQgXdNzy7xSKqT-206" style="rounded=0;orthogonalLoop=1;jettySize=auto;html=1;exitX=1;exitY=0;exitDx=0;exitDy=0;entryX=0.222;entryY=1;entryDx=0;entryDy=0;entryPerimeter=0;endArrow=none;endFill=0;" parent="1" source="H8Z0oulQgXdNzy7xSKqT-197" target="H8Z0oulQgXdNzy7xSKqT-200" edge="1">
          <mxGeometry relative="1" as="geometry" />
        </mxCell>
        <mxCell id="H8Z0oulQgXdNzy7xSKqT-207" style="rounded=0;orthogonalLoop=1;jettySize=auto;html=1;exitX=1;exitY=0.5;exitDx=0;exitDy=0;entryX=0.022;entryY=0.767;entryDx=0;entryDy=0;entryPerimeter=0;endArrow=none;endFill=0;" parent="1" source="H8Z0oulQgXdNzy7xSKqT-197" target="H8Z0oulQgXdNzy7xSKqT-201" edge="1">
          <mxGeometry relative="1" as="geometry" />
        </mxCell>
        <mxCell id="H8Z0oulQgXdNzy7xSKqT-208" value="Property No" style="ellipse;whiteSpace=wrap;html=1;align=center;fontStyle=4;" parent="1" vertex="1">
          <mxGeometry x="1308.75" y="570" width="90" height="30" as="geometry" />
        </mxCell>
        <mxCell id="H8Z0oulQgXdNzy7xSKqT-210" value="Type" style="ellipse;whiteSpace=wrap;html=1;align=center;" parent="1" vertex="1">
          <mxGeometry x="1348.75" y="620" width="90" height="30" as="geometry" />
        </mxCell>
        <mxCell id="H8Z0oulQgXdNzy7xSKqT-216" style="edgeStyle=orthogonalEdgeStyle;rounded=0;orthogonalLoop=1;jettySize=auto;html=1;exitX=1;exitY=0.5;exitDx=0;exitDy=0;entryX=0;entryY=0.25;entryDx=0;entryDy=0;endArrow=none;endFill=0;shape=link;" parent="1" source="H8Z0oulQgXdNzy7xSKqT-214" target="H8Z0oulQgXdNzy7xSKqT-192" edge="1">
          <mxGeometry relative="1" as="geometry" />
        </mxCell>
        <mxCell id="H8Z0oulQgXdNzy7xSKqT-214" value="Oversees" style="shape=rhombus;perimeter=rhombusPerimeter;whiteSpace=wrap;html=1;align=center;" parent="1" vertex="1">
          <mxGeometry x="1098.75" y="500" width="120" height="60" as="geometry" />
        </mxCell>
        <mxCell id="H8Z0oulQgXdNzy7xSKqT-218" value="&lt;font style=&quot;font-size: 20px;&quot;&gt;1&lt;/font&gt;" style="text;html=1;align=center;verticalAlign=middle;whiteSpace=wrap;rounded=0;" parent="1" vertex="1">
          <mxGeometry x="1030" y="490" width="90" height="50" as="geometry" />
        </mxCell>
        <mxCell id="H8Z0oulQgXdNzy7xSKqT-222" value="&lt;font style=&quot;font-size: 20px;&quot;&gt;n&lt;/font&gt;" style="text;html=1;align=center;verticalAlign=middle;whiteSpace=wrap;rounded=0;" parent="1" vertex="1">
          <mxGeometry x="1288.75" y="480" width="80" height="50" as="geometry" />
        </mxCell>
        <mxCell id="H8Z0oulQgXdNzy7xSKqT-223" value="&lt;font style=&quot;font-size: 20px;&quot;&gt;n&lt;/font&gt;" style="text;html=1;align=center;verticalAlign=middle;whiteSpace=wrap;rounded=0;" parent="1" vertex="1">
          <mxGeometry x="568.75" y="470" width="120" height="80" as="geometry" />
        </mxCell>
        <mxCell id="H8Z0oulQgXdNzy7xSKqT-239" style="edgeStyle=orthogonalEdgeStyle;rounded=0;orthogonalLoop=1;jettySize=auto;html=1;exitX=0.5;exitY=1;exitDx=0;exitDy=0;entryX=1;entryY=0.5;entryDx=0;entryDy=0;endArrow=none;endFill=0;shape=link;" parent="1" source="H8Z0oulQgXdNzy7xSKqT-224" target="H8Z0oulQgXdNzy7xSKqT-192" edge="1">
          <mxGeometry relative="1" as="geometry">
            <mxPoint x="1590" y="560" as="targetPoint" />
          </mxGeometry>
        </mxCell>
        <mxCell id="H8Z0oulQgXdNzy7xSKqT-224" value="Has features" style="shape=rhombus;perimeter=rhombusPerimeter;whiteSpace=wrap;html=1;align=center;" parent="1" vertex="1">
          <mxGeometry x="1690" y="240" width="100" height="70" as="geometry" />
        </mxCell>
        <mxCell id="H8Z0oulQgXdNzy7xSKqT-234" style="edgeStyle=orthogonalEdgeStyle;rounded=0;orthogonalLoop=1;jettySize=auto;html=1;exitX=0;exitY=0.5;exitDx=0;exitDy=0;endArrow=none;endFill=0;shape=link;" parent="1" source="H8Z0oulQgXdNzy7xSKqT-229" edge="1">
          <mxGeometry relative="1" as="geometry">
            <mxPoint x="773.75" y="910" as="targetPoint" />
          </mxGeometry>
        </mxCell>
        <mxCell id="H8Z0oulQgXdNzy7xSKqT-229" value="Owns" style="shape=rhombus;perimeter=rhombusPerimeter;whiteSpace=wrap;html=1;align=center;" parent="1" vertex="1">
          <mxGeometry x="960" y="720" width="120" height="60" as="geometry" />
        </mxCell>
        <mxCell id="H8Z0oulQgXdNzy7xSKqT-237" value="&lt;font style=&quot;font-size: 20px;&quot;&gt;n&lt;/font&gt;" style="text;html=1;align=center;verticalAlign=middle;whiteSpace=wrap;rounded=0;" parent="1" vertex="1">
          <mxGeometry x="1170" y="647.5" width="80" height="50" as="geometry" />
        </mxCell>
        <mxCell id="H8Z0oulQgXdNzy7xSKqT-238" value="&lt;font style=&quot;font-size: 20px;&quot;&gt;1&lt;/font&gt;" style="text;html=1;align=center;verticalAlign=middle;whiteSpace=wrap;rounded=0;" parent="1" vertex="1">
          <mxGeometry x="771.25" y="750" width="90" height="50" as="geometry" />
        </mxCell>
        <mxCell id="H8Z0oulQgXdNzy7xSKqT-242" value="m" style="text;html=1;align=center;verticalAlign=middle;whiteSpace=wrap;rounded=0;fontSize=20;" parent="1" vertex="1">
          <mxGeometry x="1720" y="440" width="80" height="50" as="geometry" />
        </mxCell>
        <mxCell id="H8Z0oulQgXdNzy7xSKqT-244" value="n" style="text;html=1;align=center;verticalAlign=middle;whiteSpace=wrap;rounded=0;fontSize=20;" parent="1" vertex="1">
          <mxGeometry x="1578.75" y="140" width="80" height="50" as="geometry" />
        </mxCell>
        <mxCell id="P_JCBOuYoXRhGGfqbiAj-7" style="rounded=0;orthogonalLoop=1;jettySize=auto;html=1;exitX=1;exitY=0;exitDx=0;exitDy=0;entryX=0;entryY=0.5;entryDx=0;entryDy=0;endArrow=none;endFill=0;" edge="1" parent="1" source="H8Z0oulQgXdNzy7xSKqT-245" target="H8Z0oulQgXdNzy7xSKqT-253">
          <mxGeometry relative="1" as="geometry" />
        </mxCell>
        <mxCell id="P_JCBOuYoXRhGGfqbiAj-9" style="rounded=0;orthogonalLoop=1;jettySize=auto;html=1;exitX=1;exitY=0.5;exitDx=0;exitDy=0;endArrow=none;endFill=0;" edge="1" parent="1" source="H8Z0oulQgXdNzy7xSKqT-245" target="H8Z0oulQgXdNzy7xSKqT-254">
          <mxGeometry relative="1" as="geometry" />
        </mxCell>
        <mxCell id="P_JCBOuYoXRhGGfqbiAj-10" style="rounded=0;orthogonalLoop=1;jettySize=auto;html=1;exitX=1;exitY=1;exitDx=0;exitDy=0;entryX=0;entryY=0.5;entryDx=0;entryDy=0;endArrow=none;endFill=0;" edge="1" parent="1" source="H8Z0oulQgXdNzy7xSKqT-245" target="H8Z0oulQgXdNzy7xSKqT-256">
          <mxGeometry relative="1" as="geometry" />
        </mxCell>
        <mxCell id="H8Z0oulQgXdNzy7xSKqT-245" value="Rental_Agreement" style="shape=rhombus;perimeter=rhombusPerimeter;whiteSpace=wrap;html=1;align=center;" parent="1" vertex="1">
          <mxGeometry x="1391.87" y="730" width="128.13" height="80" as="geometry" />
        </mxCell>
        <mxCell id="H8Z0oulQgXdNzy7xSKqT-249" style="edgeStyle=orthogonalEdgeStyle;rounded=0;orthogonalLoop=1;jettySize=auto;html=1;exitX=0.5;exitY=1;exitDx=0;exitDy=0;" parent="1" source="H8Z0oulQgXdNzy7xSKqT-104" target="H8Z0oulQgXdNzy7xSKqT-104" edge="1">
          <mxGeometry relative="1" as="geometry" />
        </mxCell>
        <mxCell id="H8Z0oulQgXdNzy7xSKqT-253" value="End_Date" style="ellipse;whiteSpace=wrap;html=1;align=center;" parent="1" vertex="1">
          <mxGeometry x="1562.5" y="710" width="100" height="30" as="geometry" />
        </mxCell>
        <mxCell id="H8Z0oulQgXdNzy7xSKqT-254" value="Start_Date" style="ellipse;whiteSpace=wrap;html=1;align=center;" parent="1" vertex="1">
          <mxGeometry x="1568.75" y="750" width="100" height="30" as="geometry" />
        </mxCell>
        <mxCell id="H8Z0oulQgXdNzy7xSKqT-256" value="Weekly_Rent" style="ellipse;whiteSpace=wrap;html=1;align=center;" parent="1" vertex="1">
          <mxGeometry x="1568.75" y="795" width="100" height="30" as="geometry" />
        </mxCell>
        <mxCell id="Sa3MG6qZYsyZeLZAQwBk-16" style="edgeStyle=orthogonalEdgeStyle;rounded=0;orthogonalLoop=1;jettySize=auto;html=1;exitX=0.5;exitY=1;exitDx=0;exitDy=0;entryX=1;entryY=0;entryDx=0;entryDy=0;endArrow=none;endFill=0;" parent="1" source="H8Z0oulQgXdNzy7xSKqT-258" target="H8Z0oulQgXdNzy7xSKqT-30" edge="1">
          <mxGeometry relative="1" as="geometry" />
        </mxCell>
        <mxCell id="H8Z0oulQgXdNzy7xSKqT-258" value="Supervises" style="shape=rhombus;perimeter=rhombusPerimeter;whiteSpace=wrap;html=1;align=center;" parent="1" vertex="1">
          <mxGeometry x="933.75" y="405" width="100" height="60" as="geometry" />
        </mxCell>
        <mxCell id="H8Z0oulQgXdNzy7xSKqT-274" value="&lt;font style=&quot;font-size: 20px;&quot;&gt;1&lt;/font&gt;" style="text;html=1;align=center;verticalAlign=middle;whiteSpace=wrap;rounded=0;" parent="1" vertex="1">
          <mxGeometry x="878.75" y="400" width="90" height="50" as="geometry" />
        </mxCell>
        <mxCell id="H8Z0oulQgXdNzy7xSKqT-275" value="&lt;font style=&quot;font-size: 20px;&quot;&gt;n&lt;/font&gt;" style="text;html=1;align=center;verticalAlign=middle;whiteSpace=wrap;rounded=0;fontSize=20;" parent="1" vertex="1">
          <mxGeometry x="963.75" y="450" width="80" height="50" as="geometry" />
        </mxCell>
        <mxCell id="H8Z0oulQgXdNzy7xSKqT-276" value="m" style="text;html=1;align=center;verticalAlign=middle;whiteSpace=wrap;rounded=0;fontSize=20;" parent="1" vertex="1">
          <mxGeometry x="1378.75" y="810" width="120" height="80" as="geometry" />
        </mxCell>
        <mxCell id="H8Z0oulQgXdNzy7xSKqT-277" value="n" style="text;html=1;align=center;verticalAlign=middle;whiteSpace=wrap;rounded=0;fontSize=20;" parent="1" vertex="1">
          <mxGeometry x="1408.75" y="620" width="120" height="80" as="geometry" />
        </mxCell>
        <mxCell id="Sa3MG6qZYsyZeLZAQwBk-7" value="&lt;font style=&quot;font-size: 20px;&quot;&gt;1&lt;/font&gt;" style="text;html=1;align=center;verticalAlign=middle;whiteSpace=wrap;rounded=0;" parent="1" vertex="1">
          <mxGeometry x="278.75" y="620" width="90" height="50" as="geometry" />
        </mxCell>
        <mxCell id="Sa3MG6qZYsyZeLZAQwBk-8" value="&lt;font style=&quot;font-size: 20px;&quot;&gt;1&lt;/font&gt;" style="text;html=1;align=center;verticalAlign=middle;whiteSpace=wrap;rounded=0;" parent="1" vertex="1">
          <mxGeometry x="638.75" y="640" width="90" height="50" as="geometry" />
        </mxCell>
        <mxCell id="P_JCBOuYoXRhGGfqbiAj-4" style="rounded=0;orthogonalLoop=1;jettySize=auto;html=1;exitX=0.75;exitY=0;exitDx=0;exitDy=0;endArrow=none;endFill=0;" edge="1" parent="1" source="H8Z0oulQgXdNzy7xSKqT-115">
          <mxGeometry relative="1" as="geometry">
            <mxPoint x="1510" y="130" as="targetPoint" />
          </mxGeometry>
        </mxCell>
        <mxCell id="P_JCBOuYoXRhGGfqbiAj-5" value="Rental_Agreement_Id" style="ellipse;whiteSpace=wrap;html=1;align=center;" vertex="1" parent="1">
          <mxGeometry x="1273.75" y="790" width="125" height="40" as="geometry" />
        </mxCell>
        <mxCell id="P_JCBOuYoXRhGGfqbiAj-8" style="rounded=0;orthogonalLoop=1;jettySize=auto;html=1;exitX=0;exitY=0.5;exitDx=0;exitDy=0;entryX=0.754;entryY=0.075;entryDx=0;entryDy=0;entryPerimeter=0;endArrow=none;endFill=0;" edge="1" parent="1" source="H8Z0oulQgXdNzy7xSKqT-245" target="P_JCBOuYoXRhGGfqbiAj-5">
          <mxGeometry relative="1" as="geometry" />
        </mxCell>
      </root>
    </mxGraphModel>
  </diagram>
</mxfile>
